<svg width="256" height="64" viewBox="0 0 256 64" fill="none" xmlns="http://www.w3.org/2000/svg">
<path d="M42 8C38.414 8 35.164 8.672 32.624 9.938C30.086 11.204 28 13.266 28 16V24C28 24.258 28.086 24.508 28.126 24.75C26.1241 24.2413 24.0655 23.9893 22 24C18.414 24 15.164 24.672 12.624 25.938C10.086 27.204 8 29.266 8 32V48C8 50.734 10.086 52.796 12.626 54.062C15.164 55.328 18.414 56 22 56C25.586 56 28.836 55.328 31.376 54.062C33.912 52.796 36 50.734 36 48V47.188C37.9565 47.7169 39.9733 47.9899 42 48C45.586 48 48.836 47.328 51.376 46.062C53.912 44.796 56 42.734 56 40V16C56 13.266 53.914 11.204 51.374 9.938C48.838 8.672 45.588 8 42 8ZM42 12C45.046 12 47.758 12.656 49.562 13.562C51.368 14.468 52 15.422 52 16C52 16.58 51.368 17.532 49.562 18.438C47.76 19.344 45.046 20 42 20C38.954 20 36.242 19.344 34.438 18.438C32.632 17.532 32 16.578 32 16C32 15.42 32.632 14.468 34.438 13.562C36.24 12.656 38.954 12 42 12ZM32 21.688C32.21 21.804 32.406 21.954 32.626 22.062C35.164 23.328 38.414 24 42 24C45.586 24 48.836 23.328 51.376 22.062C51.594 21.954 51.79 21.804 52 21.688V24C52 24.58 51.368 25.532 49.562 26.438C47.758 27.344 45.046 28 42 28C38.954 28 36.242 27.344 34.438 26.438C32.632 25.532 32 24.578 32 24V21.688ZM22 28C25.046 28 27.758 28.656 29.562 29.562C31.368 30.468 32 31.422 32 32C32 32.58 31.368 33.532 29.562 34.438C27.758 35.344 25.046 36 22 36C18.954 36 16.242 35.344 14.438 34.438C12.632 33.532 12 32.578 12 32C12 31.42 12.632 30.468 14.438 29.562C16.24 28.656 18.954 28 22 28ZM52 29.688V32C52 32.58 51.368 33.532 49.562 34.438C47.758 35.344 45.046 36 42 36C39.9626 36.011 37.9368 35.6943 36 35.062V32C36 31.742 35.914 31.492 35.874 31.25C37.734 31.734 39.796 32 42 32C45.586 32 48.836 31.328 51.376 30.062C51.594 29.954 51.79 29.804 52 29.688ZM12 37.688C12.21 37.804 12.406 37.954 12.626 38.062C15.164 39.328 18.414 40 22 40C25.586 40 28.836 39.328 31.376 38.062C31.594 37.954 31.79 37.804 32 37.688V40C32 40.58 31.368 41.532 29.562 42.438C27.758 43.344 25.046 44 22 44C18.954 44 16.242 43.344 14.438 42.438C12.632 41.532 12 40.578 12 40V37.688ZM52 37.688V40C52 40.58 51.368 41.532 49.562 42.438C47.758 43.344 45.046 44 42 44C39.726 44 37.672 43.68 36 43.124V39.25C37.836 39.734 39.836 40 42 40C45.586 40 48.836 39.328 51.376 38.062C51.594 37.954 51.79 37.804 52 37.688ZM12 45.688C12.21 45.804 12.406 45.954 12.626 46.062C15.164 47.328 18.414 48 22 48C25.586 48 28.836 47.328 31.376 46.062C31.594 45.954 31.79 45.804 32 45.688V48C32 48.58 31.368 49.532 29.562 50.438C27.758 51.344 25.046 52 22 52C18.954 52 16.242 51.344 14.438 50.438C12.632 49.532 12 48.578 12 48V45.688Z" fill="#87C232"/>
<path d="M63.6526 43.256C62.9913 43.256 62.4793 43.0747 62.1166 42.712C61.7753 42.328 61.6046 41.8053 61.6046 41.144V22.264C61.6046 21.5813 61.7753 21.0693 62.1166 20.728C62.4793 20.3653 62.9913 20.184 63.6526 20.184C64.314 20.184 64.8153 20.3653 65.1566 20.728C65.5193 21.0693 65.7006 21.5813 65.7006 22.264V30.008H69.3486L68.5486 30.552L74.4366 21.24C74.7353 20.792 75.0766 20.4933 75.4606 20.344C75.866 20.1947 76.2606 20.1627 76.6446 20.248C77.0286 20.3333 77.3593 20.5147 77.6366 20.792C77.914 21.0693 78.0633 21.4107 78.0846 21.816C78.1273 22.2213 77.9993 22.6587 77.7006 23.128L72.3246 31.352L70.7246 30.168C72.1113 30.3813 73.2846 30.8827 74.2446 31.672C75.2046 32.4613 76.026 33.56 76.7086 34.968L79.3326 40.344C79.61 40.8773 79.6953 41.3573 79.5886 41.784C79.5033 42.2107 79.29 42.552 78.9486 42.808C78.6286 43.0427 78.2553 43.1813 77.8286 43.224C77.4233 43.2667 77.018 43.192 76.6126 43C76.2286 42.7867 75.9193 42.4347 75.6846 41.944L73.1566 36.504C72.6446 35.3947 72.026 34.6053 71.3006 34.136C70.5966 33.6667 69.7113 33.432 68.6446 33.432H65.7006V41.144C65.7006 41.8053 65.53 42.328 65.1886 42.712C64.8473 43.0747 64.3353 43.256 63.6526 43.256ZM92.9041 43.32C90.7281 43.32 88.8188 42.84 87.1761 41.88C85.5548 40.92 84.2961 39.576 83.4001 37.848C82.5041 36.0987 82.0561 34.0507 82.0561 31.704C82.0561 29.9333 82.3121 28.344 82.8241 26.936C83.3361 25.5067 84.0615 24.2907 85.0001 23.288C85.9601 22.264 87.1015 21.4853 88.4241 20.952C89.7681 20.3973 91.2615 20.12 92.9041 20.12C95.1015 20.12 97.0108 20.6 98.6321 21.56C100.253 22.4987 101.512 23.832 102.408 25.56C103.304 27.288 103.752 29.3253 103.752 31.672C103.752 33.4427 103.496 35.0427 102.984 36.472C102.472 37.9013 101.736 39.128 100.776 40.152C99.8375 41.176 98.6961 41.9653 97.3521 42.52C96.0295 43.0533 94.5468 43.32 92.9041 43.32ZM92.9041 39.8C94.2908 39.8 95.4641 39.48 96.4241 38.84C97.4055 38.2 98.1521 37.272 98.6641 36.056C99.1975 34.84 99.4641 33.3893 99.4641 31.704C99.4641 29.144 98.8881 27.16 97.7361 25.752C96.6055 24.344 94.9948 23.64 92.9041 23.64C91.5388 23.64 90.3655 23.96 89.3841 24.6C88.4028 25.2187 87.6455 26.136 87.1121 27.352C86.6001 28.5467 86.3441 29.9973 86.3441 31.704C86.3441 34.2427 86.9201 36.2267 88.0721 37.656C89.2241 39.0853 90.8348 39.8 92.9041 39.8ZM109.965 43.256C109.304 43.256 108.792 43.0747 108.429 42.712C108.088 42.328 107.917 41.8053 107.917 41.144V22.616C107.917 21.912 108.098 21.3787 108.461 21.016C108.845 20.632 109.389 20.44 110.093 20.44H125.357C126.061 20.44 126.594 20.632 126.957 21.016C127.341 21.3787 127.533 21.912 127.533 22.616V41.144C127.533 41.8053 127.352 42.328 126.989 42.712C126.648 43.0747 126.146 43.256 125.485 43.256C124.824 43.256 124.312 43.0747 123.949 42.712C123.608 42.328 123.437 41.8053 123.437 41.144V23.864H112.013V41.144C112.013 41.8053 111.842 42.328 111.501 42.712C111.16 43.0747 110.648 43.256 109.965 43.256ZM134.465 43.256C133.804 43.256 133.292 43.0747 132.929 42.712C132.588 42.328 132.417 41.8053 132.417 41.144V22.296C132.417 21.6133 132.588 21.0907 132.929 20.728C133.292 20.3653 133.804 20.184 134.465 20.184C135.126 20.184 135.628 20.3653 135.969 20.728C136.332 21.0907 136.513 21.6133 136.513 22.296V41.144C136.513 41.8053 136.342 42.328 136.001 42.712C135.66 43.0747 135.148 43.256 134.465 43.256ZM143.176 43.256C142.899 43.256 142.654 43.2133 142.44 43.128C142.227 43.0427 142.046 42.9147 141.896 42.744C141.747 42.552 141.63 42.328 141.544 42.072C141.48 41.816 141.448 41.5173 141.448 41.176V22.136C141.448 21.5173 141.608 21.0373 141.928 20.696C142.27 20.3547 142.75 20.184 143.368 20.184C143.987 20.184 144.456 20.3547 144.776 20.696C145.096 21.0373 145.256 21.5173 145.256 22.136V37.272H144.52L156.68 21.368C157 20.9413 157.31 20.6427 157.608 20.472C157.907 20.28 158.302 20.184 158.792 20.184C159.134 20.184 159.422 20.2587 159.656 20.408C159.912 20.5573 160.104 20.7813 160.232 21.08C160.382 21.3573 160.456 21.688 160.456 22.072V41.272C160.456 41.912 160.296 42.4027 159.976 42.744C159.656 43.0853 159.187 43.256 158.568 43.256C157.95 43.256 157.47 43.0853 157.128 42.744C156.808 42.4027 156.648 41.912 156.648 41.272V26.136H157.352L145.224 42.04C144.883 42.4667 144.574 42.776 144.296 42.968C144.04 43.16 143.667 43.256 143.176 43.256ZM150.92 18.68C149.448 18.68 148.2 18.3707 147.176 17.752C146.152 17.1333 145.395 16.2693 144.904 15.16C144.734 14.7547 144.712 14.424 144.84 14.168C144.968 13.8907 145.192 13.6987 145.512 13.592C145.854 13.4853 146.142 13.496 146.376 13.624C146.611 13.752 146.835 13.9973 147.048 14.36C147.432 15.0427 147.944 15.5653 148.584 15.928C149.224 16.2693 150.014 16.44 150.952 16.44C151.891 16.44 152.68 16.2693 153.32 15.928C153.96 15.5653 154.472 15.0427 154.856 14.36C155.07 13.9973 155.294 13.752 155.528 13.624C155.763 13.496 156.051 13.4853 156.392 13.592C156.712 13.6987 156.926 13.88 157.032 14.136C157.16 14.392 157.128 14.7227 156.936 15.128C156.382 16.2373 155.592 17.112 154.568 17.752C153.566 18.3707 152.35 18.68 150.92 18.68ZM167.434 43.256C166.773 43.256 166.261 43.0747 165.898 42.712C165.557 42.328 165.386 41.8053 165.386 41.144V22.264C165.386 21.5813 165.557 21.0693 165.898 20.728C166.261 20.3653 166.773 20.184 167.434 20.184C168.095 20.184 168.597 20.3653 168.938 20.728C169.301 21.0693 169.482 21.5813 169.482 22.264V30.008H173.13L172.33 30.552L178.218 21.24C178.517 20.792 178.858 20.4933 179.242 20.344C179.647 20.1947 180.042 20.1627 180.426 20.248C180.81 20.3333 181.141 20.5147 181.418 20.792C181.695 21.0693 181.845 21.4107 181.866 21.816C181.909 22.2213 181.781 22.6587 181.482 23.128L176.106 31.352L174.506 30.168C175.893 30.3813 177.066 30.8827 178.026 31.672C178.986 32.4613 179.807 33.56 180.49 34.968L183.114 40.344C183.391 40.8773 183.477 41.3573 183.37 41.784C183.285 42.2107 183.071 42.552 182.73 42.808C182.41 43.0427 182.037 43.1813 181.61 43.224C181.205 43.2667 180.799 43.192 180.394 43C180.01 42.7867 179.701 42.4347 179.466 41.944L176.938 36.504C176.426 35.3947 175.807 34.6053 175.082 34.136C174.378 33.6667 173.493 33.432 172.426 33.432H169.482V41.144C169.482 41.8053 169.311 42.328 168.97 42.712C168.629 43.0747 168.117 43.256 167.434 43.256ZM186.735 43.256C186.223 43.256 185.807 43.1387 185.487 42.904C185.188 42.6693 185.007 42.36 184.943 41.976C184.879 41.5707 184.954 41.1227 185.167 40.632L193.615 21.912C193.892 21.2933 194.223 20.856 194.607 20.6C195.012 20.3227 195.471 20.184 195.983 20.184C196.474 20.184 196.911 20.3227 197.295 20.6C197.7 20.856 198.042 21.2933 198.319 21.912L206.799 40.632C207.034 41.1227 207.119 41.5707 207.055 41.976C206.991 42.3813 206.81 42.7013 206.511 42.936C206.212 43.1493 205.818 43.256 205.327 43.256C204.73 43.256 204.26 43.1173 203.919 42.84C203.599 42.5413 203.311 42.0933 203.055 41.496L200.975 36.664L202.703 37.784H189.199L190.927 36.664L188.879 41.496C188.602 42.1147 188.314 42.5627 188.015 42.84C187.716 43.1173 187.29 43.256 186.735 43.256ZM195.919 24.888L191.439 35.544L190.607 34.52H201.295L200.495 35.544L195.983 24.888H195.919Z" fill="#87C232"/>
</svg>
